HIERARCHY
ROOT Hips
{
  OFFSET 1.44925e-005 102.336 -0.101585
  CHANNELS 6 Xposition Yposition Zposition Zrotation Xrotation Yrotation
  JOINT LeftUpLeg
  {
    OFFSET 8.9458 -8.66707 0.101652
    CHANNELS 3 Zrotation Xrotation Yrotation
    JOINT LeftLeg
    {
      OFFSET 0 -44.4227 1.3727
      CHANNELS 3 Zrotation Xrotation Yrotation
      JOINT LeftFoot
      {
        OFFSET -0.253549 -42.0924 -1.46059
        CHANNELS 3 Zrotation Xrotation Yrotation
        JOINT LeftToes
        {
          OFFSET -0.04 -4.41509 8.4991
          CHANNELS 3 Zrotation Xrotation Yrotation
          End Site
          {
            OFFSET 0.08 -0.047448 9.77979
          }
        }
      }
    }
  }
  JOINT Spine
  {
    OFFSET 0 11.8905 0
    CHANNELS 3 Zrotation Xrotation Yrotation
    JOINT Spine1
    {
      OFFSET 0 25.6574 0.127663
      CHANNELS 3 Zrotation Xrotation Yrotation
      JOINT RightShoulder
      {
        OFFSET -8.99 -0.362252 -0.22
        CHANNELS 3 Zrotation Xrotation Yrotation
        JOINT RightArm
        {
          OFFSET -10.2827 -0.00338 0.322123
          CHANNELS 3 Zrotation Xrotation Yrotation
          JOINT RightForeArm
          {
            OFFSET -26.364 0.099144 -1.42434
            CHANNELS 3 Zrotation Xrotation Yrotation
            JOINT RightHand
            {
              OFFSET -22.0324 0.085362 1.02216
              CHANNELS 3 Zrotation Xrotation Yrotation
              End Site
              {
                OFFSET -13.3284 -0.6 1.50291
              }
            }
          }
        }
      }
      JOINT LeftShoulder1
      {
        OFFSET 8.99 -0.362252 -0.22
        CHANNELS 3 Zrotation Xrotation Yrotation
        JOINT LeftArm
        {
          OFFSET 10.2827 -0.00337999 0.322123
          CHANNELS 3 Zrotation Xrotation Yrotation
          JOINT LeftForeArm
          {
            OFFSET 26.2597 0.099144 -1.42434
            CHANNELS 3 Zrotation Xrotation Yrotation
            JOINT LeftHand
            {
              OFFSET 22.0902 0.085362 1.02216
              CHANNELS 3 Zrotation Xrotation Yrotation
              End Site
              {
                OFFSET 13.419 -0.6 1.50291
              }
            }
          }
        }
      }
      JOINT Head
      {
        OFFSET 0 8.73416 0.011341
        CHANNELS 3 Zrotation Xrotation Yrotation
        End Site
        {
          OFFSET -0.29 12.7742 2.51395
        }
      }
    }
  }
  JOINT RightUpLeg
  {
    OFFSET -8.9458 -8.66707 0.101652
    CHANNELS 3 Zrotation Xrotation Yrotation
    JOINT RightLeg
    {
      OFFSET 0 -44.4227 1.3727
      CHANNELS 3 Zrotation Xrotation Yrotation
      JOINT RightFoot
      {
        OFFSET 0.253549 -42.0924 -1.46059
        CHANNELS 3 Zrotation Xrotation Yrotation
        JOINT RightToes
        {
          OFFSET 0.04 -4.41509 8.4991
          CHANNELS 3 Zrotation Xrotation Yrotation
          End Site
          {
            OFFSET -0.08 -0.137448 9.77979
          }
        }
      }
    }
  }
}
MOTION
Frames:	8
Frame Time:	0.0333333
-146.48 101.886 0.443717 -2.05034 -0.184665 -91.4062 -2.96774 -0.588463 0.339081 -0.0406042 8.48378 17.9881 0.426104 -10.8172 0.0649953 -1.32628e-009 8.7523e-006 -1.46892e-008 -1.09631 8.68295 -0.302647 0.552641 -5.01686 -0.383859 37.1459 1.77691 0.0975999 42.5529 -18.5137 8.4675 10.0563 43.1252 4.67934 -6.89147 9.62709 -0.318043 -43.953 3.46466 -3.34751 -29.0452 -11.4991 1.42118 -4.75159 36.2325 -14.3598 5.82328 9.61819 -0.917488 1.44196 -2.95112 -3.4221 0.998612 -0.38212 -2.63999 0.21471 10.3264 -11.8158 0.377514 -12.5018 -0.182914 0.0462048 0.000530889 0.662642 
-146.494 101.886 0.45307 -1.96932 -0.202764 -91.4407 -2.98774 -0.652995 0.315165 -0.0509858 8.45864 18.0395 0.412342 -10.817 0.0649953 -1.32628e-009 8.7523e-006 -1.46892e-008 -1.07849 8.6169 -0.300599 0.512002 -5.02646 -0.374218 37.1727 1.77691 0.0975999 42.5545 -18.5165 8.47923 10.0229 43.1155 4.71928 -6.6883 9.63944 -0.387884 -43.937 3.46558 -3.35082 -29.0335 -11.4662 1.42238 -4.78866 36.1598 -14.3348 5.82328 9.61819 -0.917488 1.44645 -2.95006 -3.48459 0.985771 -0.49301 -2.61416 0.185902 10.3815 -11.8019 0.414711 -12.5277 -0.182933 0.0462048 0.000530889 0.662642 
-146.531 101.886 0.470713 -1.86855 -0.239711 -91.4862 -3.03817 -0.718643 0.269548 -0.0575238 8.42094 18.128 0.407743 -10.8217 0.0649963 -1.32628e-009 8.7523e-006 -1.46892e-008 -1.10804 8.58533 -0.280072 0.518261 -5.10844 -0.35461 37.1953 1.77691 0.0975702 42.5622 -18.5663 8.4559 9.9287 43.2004 4.82002 -6.56788 9.64251 -0.343472 -43.9682 3.47145 -3.35843 -28.9564 -11.4491 1.41569 -4.88339 36.18 -14.2293 5.82328 9.61819 -0.917488 1.45606 -2.96358 -3.56881 0.950364 -0.637558 -2.59524 0.14701 10.4903 -11.7692 0.467409 -12.5862 -0.182974 0.0462048 0.000530889 0.662642 
-146.574 101.885 0.488624 -1.84245 -0.256176 -91.4906 -3.07607 -0.716264 0.240741 -0.0472141 8.4144 18.161 0.412175 -10.846 0.0650015 -1.32628e-009 8.7523e-006 -1.46892e-008 -1.16682 8.63966 -0.2493 0.602285 -5.19205 -0.338214 37.1422 1.77691 0.097076 42.6707 -18.7415 8.44712 9.82548 43.4518 4.88754 -6.87755 9.60932 0.0411109 -44.1084 3.48432 -3.36316 -28.7835 -11.4606 1.3603 -5.0187 36.2868 -14.0631 5.82328 9.61819 -0.917488 1.49212 -3.03727 -3.63231 0.921101 -0.675533 -2.60781 0.139547 10.5687 -11.7484 0.501652 -12.6458 -0.182838 0.0462048 0.000530889 0.662642 
-146.617 101.88 0.505104 -1.85692 -0.260359 -91.47 -3.10231 -0.68158 0.220613 -0.0295007 8.4267 18.1553 0.417582 -10.8753 0.0650079 -1.32628e-009 8.7523e-006 -1.46892e-008 -1.18818 8.66855 -0.224362 0.657273 -5.17307 -0.321632 37.0379 1.77691 0.0968821 42.8592 -18.8792 8.50696 9.80484 43.5949 4.8699 -7.45277 9.55667 0.505895 -44.2772 3.49677 -3.36391 -28.593 -11.4596 1.27349 -5.09681 36.3359 -13.9706 5.82328 9.61819 -0.917488 1.55939 -3.12472 -3.70168 0.894484 -0.653363 -2.64323 0.154442 10.6179 -11.7312 0.51915 -12.7006 -0.182104 0.0462048 0.000530889 0.662642 
-146.672 101.875 0.524233 -1.83645 -0.296002 -91.4717 -3.16597 -0.659613 0.166223 -0.0132291 8.40106 18.2054 0.427908 -10.8848 0.06501 -1.32628e-009 8.7523e-006 -1.46892e-008 -1.18419 8.60793 -0.201371 0.623536 -5.10392 -0.290989 36.9669 1.77691 0.0982494 42.9756 -18.7693 8.55668 9.85863 43.3944 4.85846 -7.91686 9.52333 0.668956 -44.3376 3.50153 -3.36281 -28.504 -11.4098 1.22752 -5.03178 36.3235 -14.0471 5.82328 9.61819 -0.917488 1.61961 -3.17127 -3.77857 0.838501 -0.679917 -2.68631 0.151079 10.6975 -11.6844 0.549302 -12.7695 -0.181237 0.0462048 0.000530889 0.662642 
-146.745 101.873 0.546076 -1.78951 -0.345614 -91.4798 -3.25215 -0.638136 0.0901221 0.00996464 8.34251 18.2915 0.458217 -10.8821 0.0650094 -1.32628e-009 8.7523e-006 -1.46892e-008 -1.19909 8.56199 -0.178511 0.572987 -5.13397 -0.258397 36.9479 1.77691 0.102687 42.9765 -18.5067 8.4955 9.86661 43.077 4.96439 -8.14768 9.51526 0.602125 -44.2623 3.49736 -3.36092 -28.5452 -11.3121 1.25843 -4.88074 36.3435 -14.2137 5.82328 9.61819 -0.917488 1.63379 -3.21199 -3.76043 0.779846 -0.719319 -2.71399 0.124163 10.7678 -11.6471 0.601947 -12.8345 -0.180292 0.0462048 0.000530889 0.662642 
-146.821 101.873 0.563175 -1.775 -0.337186 -91.4346 -3.27476 -0.609411 0.0606183 0.0441611 8.34675 18.2829 0.476293 -10.9092 0.0650153 -1.32628e-009 8.7523e-006 -1.46892e-008 -1.19155 8.61401 -0.182797 0.542073 -5.25805 -0.258213 36.9594 1.77691 0.108813 42.9698 -18.351 8.39232 9.7769 43.0015 5.1426 -8.23217 9.50934 0.62677 -44.126 3.48682 -3.35928 -28.6482 -11.2115 1.32425 -4.7768 36.3633 -14.3299 5.82328 9.61819 -0.917488 1.62275 -3.29743 -3.55294 0.790629 -0.662507 -2.70206 0.108864 10.7295 -11.7069 0.638715 -12.8522 -0.179268 0.0462048 0.000530889 0.662642 
